<svg width="516" height="88" viewBox="0 0 516 88" fill="none" xmlns="http://www.w3.org/2000/svg">
<g filter="url(#filter0_i_0_1)">
<path fill-rule="evenodd" clip-rule="evenodd" d="M148 43C143.029 43 139 47.0294 139 52V68C139 72.9706 143.029 77 148 77H204C206.209 77 208 75.2091 208 73V72.5C208 70.567 206.433 69 204.5 69C202.567 69 201 67.433 201 65.5V52C201 47.0294 196.971 43 192 43H148ZM148 48C145.791 48 144 49.7909 144 52C144 54.2091 145.791 56 148 56H192C194.209 56 196 54.2091 196 52C196 49.7909 194.209 48 192 48H148ZM144 68C144 65.7909 145.791 64 148 64H162C164.209 64 166 65.7909 166 68C166 70.2091 164.209 72 162 72H148C145.791 72 144 70.2091 144 68ZM178 64C175.791 64 174 65.7909 174 68C174 70.2091 175.791 72 178 72H192C194.209 72 196 70.2091 196 68C196 65.7909 194.209 64 192 64H178Z" fill="#F3757C"/>
<path fill-rule="evenodd" clip-rule="evenodd" d="M7 36C7 31.0294 11.0294 27 16 27H100C104.971 27 109 31.0294 109 36V52C109 56.9706 104.971 61 100 61H4C1.79086 61 0 59.2091 0 57V56.2419C0 54.3089 1.567 52.7419 3.5 52.7419C5.433 52.7419 7 51.1749 7 49.2419V36ZM12 36C12 33.7909 13.7909 32 16 32H100C102.209 32 104 33.7909 104 36C104 38.2091 102.209 40 100 40H16C13.7909 40 12 38.2091 12 36ZM36 48C33.7909 48 32 49.7909 32 52C32 54.2091 33.7909 56 36 56H80C82.2091 56 84 54.2091 84 52C84 49.7909 82.2091 48 80 48H36Z" fill="#F3757C"/>
<path d="M258.309 69V17.4609H293.641V26.1797H268.715V38.3789H290.23V47.0977H268.715V69H258.309Z" fill="#F3757C"/>
<path d="M320.805 57.1172L330.648 58.7695C329.383 62.3789 327.379 65.1328 324.637 67.0312C321.918 68.9062 318.508 69.8438 314.406 69.8438C307.914 69.8438 303.109 67.7227 299.992 63.4805C297.531 60.082 296.301 55.793 296.301 50.6133C296.301 44.4258 297.918 39.5859 301.152 36.0938C304.387 32.5781 308.477 30.8203 313.422 30.8203C318.977 30.8203 323.359 32.6602 326.57 36.3398C329.781 39.9961 331.316 45.6094 331.176 53.1797H306.426C306.496 56.1094 307.293 58.3945 308.816 60.0352C310.34 61.6523 312.238 62.4609 314.512 62.4609C316.059 62.4609 317.359 62.0391 318.414 61.1953C319.469 60.3516 320.266 58.9922 320.805 57.1172ZM321.367 47.1328C321.297 44.2734 320.559 42.1055 319.152 40.6289C317.746 39.1289 316.035 38.3789 314.02 38.3789C311.863 38.3789 310.082 39.1641 308.676 40.7344C307.27 42.3047 306.578 44.4375 306.602 47.1328H321.367Z" fill="#F3757C"/>
<path d="M357.883 57.1172L367.727 58.7695C366.461 62.3789 364.457 65.1328 361.715 67.0312C358.996 68.9062 355.586 69.8438 351.484 69.8438C344.992 69.8438 340.188 67.7227 337.07 63.4805C334.609 60.082 333.379 55.793 333.379 50.6133C333.379 44.4258 334.996 39.5859 338.23 36.0938C341.465 32.5781 345.555 30.8203 350.5 30.8203C356.055 30.8203 360.438 32.6602 363.648 36.3398C366.859 39.9961 368.395 45.6094 368.254 53.1797H343.504C343.574 56.1094 344.371 58.3945 345.895 60.0352C347.418 61.6523 349.316 62.4609 351.59 62.4609C353.137 62.4609 354.438 62.0391 355.492 61.1953C356.547 60.3516 357.344 58.9922 357.883 57.1172ZM358.445 47.1328C358.375 44.2734 357.637 42.1055 356.23 40.6289C354.824 39.1289 353.113 38.3789 351.098 38.3789C348.941 38.3789 347.16 39.1641 345.754 40.7344C344.348 42.3047 343.656 44.4375 343.68 47.1328H358.445Z" fill="#F3757C"/>
<path d="M407.582 69H398.406V63.5156C396.883 65.6484 395.078 67.2422 392.992 68.2969C390.93 69.3281 388.844 69.8438 386.734 69.8438C382.445 69.8438 378.766 68.1211 375.695 64.6758C372.648 61.207 371.125 56.3789 371.125 50.1914C371.125 43.8633 372.613 39.0586 375.59 35.7773C378.566 32.4727 382.328 30.8203 386.875 30.8203C391.047 30.8203 394.656 32.5547 397.703 36.0234V17.4609H407.582V69ZM381.215 49.5234C381.215 53.5078 381.766 56.3906 382.867 58.1719C384.461 60.75 386.688 62.0391 389.547 62.0391C391.82 62.0391 393.754 61.0781 395.348 59.1562C396.941 57.2109 397.738 54.3164 397.738 50.4727C397.738 46.1836 396.965 43.1016 395.418 41.2266C393.871 39.3281 391.891 38.3789 389.477 38.3789C387.133 38.3789 385.164 39.3164 383.57 41.1914C382 43.043 381.215 45.8203 381.215 49.5234Z" fill="#F3757C"/>
</g>
<g filter="url(#filter1_i_0_1)">
<path d="M52 4C52 1.79086 53.7909 0 56 0H60C62.2091 0 64 1.79086 64 4C64 6.20914 62.2091 8 60 8H56C53.7909 8 52 6.20914 52 4Z" fill="#EDEDED"/>
<path d="M47 20C47 17.7909 48.7909 16 51 16H65C67.2091 16 69 17.7909 69 20C69 22.2091 67.2091 24 65 24H51C48.7909 24 47 22.2091 47 20Z" fill="#EDEDED"/>
<path d="M32 68C32 65.7909 33.7909 64 36 64H50C52.2091 64 54 65.7909 54 68C54 70.2091 52.2091 72 50 72H36C33.7909 72 32 70.2091 32 68Z" fill="#EDEDED"/>
<path d="M27 84C27 81.7909 28.7909 80 31 80H37C39.2091 80 41 81.7909 41 84C41 86.2091 39.2091 88 37 88H31C28.7909 88 27 86.2091 27 84Z" fill="#EDEDED"/>
<path d="M75 84C75 81.7909 76.7909 80 79 80H85C87.2091 80 89 81.7909 89 84C89 86.2091 87.2091 88 85 88H79C76.7909 88 75 86.2091 75 84Z" fill="#EDEDED"/>
<path d="M62 68C62 65.7909 63.7909 64 66 64H80C82.2091 64 84 65.7909 84 68C84 70.2091 82.2091 72 80 72H66C63.7909 72 62 70.2091 62 68Z" fill="#EDEDED"/>
<path d="M164 4C164 1.79086 165.791 0 168 0H172C174.209 0 176 1.79086 176 4C176 6.20914 174.209 8 172 8H168C165.791 8 164 6.20914 164 4Z" fill="#EDEDED"/>
<path d="M159 20C159 17.7909 160.791 16 163 16H177C179.209 16 181 17.7909 181 20C181 22.2091 179.209 24 177 24H163C160.791 24 159 22.2091 159 20Z" fill="#EDEDED"/>
<path d="M124 36C124 33.7909 125.791 32 128 32H212C214.209 32 216 33.7909 216 36C216 38.2091 214.209 40 212 40H128C125.791 40 124 38.2091 124 36Z" fill="#EDEDED"/>
<path d="M139 84C139 81.7909 140.791 80 143 80H149C151.209 80 153 81.7909 153 84C153 86.2091 151.209 88 149 88H143C140.791 88 139 86.2091 139 84Z" fill="#EDEDED"/>
<path d="M187 84C187 81.7909 188.791 80 191 80H197C199.209 80 201 81.7909 201 84C201 86.2091 199.209 88 197 88H191C188.791 88 187 86.2091 187 84Z" fill="#EDEDED"/>
<path d="M407.273 17.4609H427.875C431.953 17.4609 434.988 17.6367 436.98 17.9883C438.996 18.3164 440.789 19.0195 442.359 20.0977C443.953 21.1758 445.277 22.6172 446.332 24.4219C447.387 26.2031 447.914 28.207 447.914 30.4336C447.914 32.8477 447.258 35.0625 445.945 37.0781C444.656 39.0938 442.898 40.6055 440.672 41.6133C443.812 42.5273 446.227 44.0859 447.914 46.2891C449.602 48.4922 450.445 51.082 450.445 54.0586C450.445 56.4023 449.895 58.6875 448.793 60.9141C447.715 63.1172 446.227 64.8867 444.328 66.2227C442.453 67.5352 440.133 68.3438 437.367 68.6484C435.633 68.8359 431.449 68.9531 424.816 69H407.273V17.4609ZM417.68 26.0391V37.957H424.5C428.555 37.957 431.074 37.8984 432.059 37.7812C433.84 37.5703 435.234 36.9609 436.242 35.9531C437.273 34.9219 437.789 33.5742 437.789 31.9102C437.789 30.3164 437.344 29.0273 436.453 28.043C435.586 27.0352 434.285 26.4258 432.551 26.2148C431.52 26.0977 428.555 26.0391 423.656 26.0391H417.68ZM417.68 46.5352V60.3164H427.312C431.062 60.3164 433.441 60.2109 434.449 60C435.996 59.7188 437.25 59.0391 438.211 57.9609C439.195 56.8594 439.688 55.3945 439.688 53.5664C439.688 52.0195 439.312 50.707 438.562 49.6289C437.812 48.5508 436.723 47.7656 435.293 47.2734C433.887 46.7812 430.816 46.5352 426.082 46.5352H417.68Z" fill="#EEEEEE"/>
<path d="M453.914 49.8047C453.914 46.5234 454.723 43.3477 456.34 40.2773C457.957 37.207 460.242 34.8633 463.195 33.2461C466.172 31.6289 469.488 30.8203 473.145 30.8203C478.793 30.8203 483.422 32.6602 487.031 36.3398C490.641 39.9961 492.445 44.625 492.445 50.2266C492.445 55.875 490.617 60.5625 486.961 64.2891C483.328 67.9922 478.746 69.8438 473.215 69.8438C469.793 69.8438 466.523 69.0703 463.406 67.5234C460.312 65.9766 457.957 63.7148 456.34 60.7383C454.723 57.7383 453.914 54.0938 453.914 49.8047ZM464.039 50.332C464.039 54.0352 464.918 56.8711 466.676 58.8398C468.434 60.8086 470.602 61.793 473.18 61.793C475.758 61.793 477.914 60.8086 479.648 58.8398C481.406 56.8711 482.285 54.0117 482.285 50.2617C482.285 46.6055 481.406 43.793 479.648 41.8242C477.914 39.8555 475.758 38.8711 473.18 38.8711C470.602 38.8711 468.434 39.8555 466.676 41.8242C464.918 43.793 464.039 46.6289 464.039 50.332Z" fill="#EEEEEE"/>
<path d="M514.336 31.6641V39.5391H507.586V54.5859C507.586 57.6328 507.645 59.4141 507.762 59.9297C507.902 60.4219 508.195 60.832 508.641 61.1602C509.109 61.4883 509.672 61.6523 510.328 61.6523C511.242 61.6523 512.566 61.3359 514.301 60.7031L515.145 68.3672C512.848 69.3516 510.246 69.8438 507.34 69.8438C505.559 69.8438 503.953 69.5508 502.523 68.9648C501.094 68.3555 500.039 67.582 499.359 66.6445C498.703 65.6836 498.246 64.3945 497.988 62.7773C497.777 61.6289 497.672 59.3086 497.672 55.8164V39.5391H493.137V31.6641H497.672V24.2461L507.586 18.4805V31.6641H514.336Z" fill="#EEEEEE"/>
</g>
<defs>
<filter id="filter0_i_0_1" x="0" y="17.4609" width="407.582" height="59.5391" filterUnits="userSpaceOnUse" color-interpolation-filters="sRGB">
<feFlood flood-opacity="0" result="BackgroundImageFix"/>
<feBlend mode="normal" in="SourceGraphic" in2="BackgroundImageFix" result="shape"/>
<feColorMatrix in="SourceAlpha" type="matrix" values="0 0 0 0 0 0 0 0 0 0 0 0 0 0 0 0 0 0 127 0" result="hardAlpha"/>
<feOffset/>
<feGaussianBlur stdDeviation="4"/>
<feComposite in2="hardAlpha" operator="arithmetic" k2="-1" k3="1"/>
<feColorMatrix type="matrix" values="0 0 0 0 0 0 0 0 0 0 0 0 0 0 0 0 0 0 0.25 0"/>
<feBlend mode="normal" in2="shape" result="effect1_innerShadow_0_1"/>
</filter>
<filter id="filter1_i_0_1" x="27" y="0" width="488.145" height="88" filterUnits="userSpaceOnUse" color-interpolation-filters="sRGB">
<feFlood flood-opacity="0" result="BackgroundImageFix"/>
<feBlend mode="normal" in="SourceGraphic" in2="BackgroundImageFix" result="shape"/>
<feColorMatrix in="SourceAlpha" type="matrix" values="0 0 0 0 0 0 0 0 0 0 0 0 0 0 0 0 0 0 127 0" result="hardAlpha"/>
<feOffset/>
<feGaussianBlur stdDeviation="4"/>
<feComposite in2="hardAlpha" operator="arithmetic" k2="-1" k3="1"/>
<feColorMatrix type="matrix" values="0 0 0 0 0 0 0 0 0 0 0 0 0 0 0 0 0 0 0.25 0"/>
<feBlend mode="normal" in2="shape" result="effect1_innerShadow_0_1"/>
</filter>
</defs>
</svg>
