<svg width="235" height="40" viewBox="0 0 235 40" fill="none" xmlns="http://www.w3.org/2000/svg">
<g filter="url(#filter0_i_0_1)">
<path fill-rule="evenodd" clip-rule="evenodd" d="M67.2727 19.5454C65.0134 19.5454 63.1818 21.377 63.1818 23.6363V30.9091C63.1818 33.1684 65.0134 35 67.2727 35H92.7273C93.7314 35 94.5454 34.1859 94.5454 33.1818V32.9545C94.5454 32.0759 93.8332 31.3636 92.9545 31.3636C92.0759 31.3636 91.3636 30.6513 91.3636 29.7727V23.6363C91.3636 21.377 89.5321 19.5454 87.2727 19.5454H67.2727ZM67.2727 21.8182C66.2686 21.8182 65.4545 22.6322 65.4545 23.6363C65.4545 24.6405 66.2686 25.4545 67.2727 25.4545H87.2727C88.2769 25.4545 89.0909 24.6405 89.0909 23.6363C89.0909 22.6322 88.2769 21.8182 87.2727 21.8182H67.2727ZM65.4545 30.9091C65.4545 29.9049 66.2686 29.0909 67.2727 29.0909H73.6364C74.6405 29.0909 75.4545 29.9049 75.4545 30.9091C75.4545 31.9132 74.6405 32.7273 73.6364 32.7273H67.2727C66.2686 32.7273 65.4545 31.9132 65.4545 30.9091ZM80.9091 29.0909C79.9049 29.0909 79.0909 29.9049 79.0909 30.9091C79.0909 31.9132 79.9049 32.7273 80.9091 32.7273H87.2727C88.2769 32.7273 89.0909 31.9132 89.0909 30.9091C89.0909 29.9049 88.2769 29.0909 87.2727 29.0909H80.9091Z" fill="#F3757C"/>
<path fill-rule="evenodd" clip-rule="evenodd" d="M3.18182 16.3636C3.18182 14.1043 5.01338 12.2727 7.27273 12.2727H45.4545C47.7139 12.2727 49.5454 14.1043 49.5454 16.3636V23.6363C49.5454 25.8957 47.7139 27.7273 45.4545 27.7273H1.81818C0.814028 27.7273 0 26.9132 0 25.9091V25.5645C0 24.6859 0.712274 23.9736 1.59091 23.9736C2.46954 23.9736 3.18182 23.2613 3.18182 22.3827V16.3636ZM5.45454 16.3636C5.45454 15.3595 6.26857 14.5454 7.27273 14.5454H45.4545C46.4587 14.5454 47.2727 15.3595 47.2727 16.3636C47.2727 17.3678 46.4587 18.1818 45.4545 18.1818H7.27273C6.26857 18.1818 5.45454 17.3678 5.45454 16.3636ZM16.3636 21.8182C15.3595 21.8182 14.5455 22.6322 14.5455 23.6363C14.5455 24.6405 15.3595 25.4545 16.3636 25.4545H36.3636C37.3678 25.4545 38.1818 24.6405 38.1818 23.6363C38.1818 22.6322 37.3678 21.8182 36.3636 21.8182H16.3636Z" fill="#F3757C"/>
<path d="M117.413 31.3636V7.93677H133.473V11.8998H122.143V17.4449H131.923V21.408H122.143V31.3636H117.413Z" fill="#F3757C"/>
<path d="M145.82 25.9623L150.295 26.7134C149.719 28.354 148.809 29.6058 147.562 30.4687C146.326 31.321 144.776 31.7471 142.912 31.7471C139.961 31.7471 137.777 30.783 136.36 28.8547C135.241 27.31 134.682 25.3604 134.682 23.006C134.682 20.1935 135.417 17.9936 136.887 16.4062C138.358 14.8082 140.217 14.0092 142.464 14.0092C144.989 14.0092 146.982 14.8455 148.441 16.5181C149.901 18.18 150.598 20.7315 150.534 24.1726H139.284C139.316 25.5042 139.679 26.5429 140.371 27.2887C141.064 28.0238 141.926 28.3913 142.96 28.3913C143.663 28.3913 144.254 28.1996 144.734 27.816C145.213 27.4325 145.575 26.8146 145.82 25.9623ZM146.076 21.424C146.044 20.1243 145.708 19.1388 145.069 18.4677C144.43 17.7858 143.652 17.4449 142.736 17.4449C141.756 17.4449 140.946 17.8018 140.307 18.5156C139.668 19.2294 139.354 20.1988 139.364 21.424H146.076Z" fill="#F3757C"/>
<path d="M162.674 25.9623L167.148 26.7134C166.573 28.354 165.662 29.6058 164.416 30.4687C163.18 31.321 161.63 31.7471 159.766 31.7471C156.815 31.7471 154.631 30.783 153.214 28.8547C152.095 27.31 151.536 25.3604 151.536 23.006C151.536 20.1935 152.271 17.9936 153.741 16.4062C155.211 14.8082 157.07 14.0092 159.318 14.0092C161.843 14.0092 163.835 14.8455 165.295 16.5181C166.754 18.18 167.452 20.7315 167.388 24.1726H156.138C156.17 25.5042 156.532 26.5429 157.225 27.2887C157.917 28.0238 158.78 28.3913 159.814 28.3913C160.517 28.3913 161.108 28.1996 161.587 27.816C162.067 27.4325 162.429 26.8146 162.674 25.9623ZM162.93 21.424C162.898 20.1243 162.562 19.1388 161.923 18.4677C161.284 17.7858 160.506 17.4449 159.59 17.4449C158.61 17.4449 157.8 17.8018 157.161 18.5156C156.522 19.2294 156.207 20.1988 156.218 21.424H162.93Z" fill="#F3757C"/>
<path d="M185.265 31.3636H181.094V28.8707C180.401 29.8402 179.581 30.5646 178.633 31.044C177.695 31.5128 176.747 31.7471 175.788 31.7471C173.839 31.7471 172.166 30.9641 170.771 29.3981C169.386 27.8214 168.693 25.6268 168.693 22.8143C168.693 19.9378 169.37 17.7539 170.723 16.2624C172.076 14.7603 173.785 14.0092 175.852 14.0092C177.749 14.0092 179.389 14.7976 180.774 16.3743V7.93677H185.265V31.3636ZM173.279 22.5106C173.279 24.3217 173.53 25.6321 174.031 26.4417C174.755 27.6136 175.767 28.1996 177.067 28.1996C178.1 28.1996 178.979 27.7628 179.703 26.8892C180.428 26.0049 180.79 24.6893 180.79 22.9421C180.79 20.9925 180.439 19.5916 179.735 18.7393C179.032 17.8764 178.132 17.4449 177.035 17.4449C175.969 17.4449 175.075 17.8711 174.35 18.7233C173.636 19.565 173.279 20.8274 173.279 22.5106Z" fill="#F3757C"/>
</g>
<g filter="url(#filter1_i_0_1)">
<path d="M23.6361 1.81818C23.6361 0.814028 24.4501 0 25.4543 0H27.2725C28.2766 0 29.0906 0.814028 29.0906 1.81818C29.0906 2.82234 28.2766 3.63636 27.2725 3.63636H25.4543C24.4501 3.63636 23.6361 2.82234 23.6361 1.81818Z" fill="#EDEDED"/>
<path d="M21.3634 9.09091C21.3634 8.08676 22.1774 7.27273 23.1816 7.27273H29.5452C30.5493 7.27273 31.3634 8.08676 31.3634 9.09091C31.3634 10.0951 30.5493 10.9091 29.5452 10.9091H23.1816C22.1774 10.9091 21.3634 10.0951 21.3634 9.09091Z" fill="#EDEDED"/>
<path d="M14.5452 30.9091C14.5452 29.9049 15.3592 29.0909 16.3634 29.0909H22.727C23.7312 29.0909 24.5452 29.9049 24.5452 30.9091C24.5452 31.9132 23.7312 32.7273 22.727 32.7273H16.3634C15.3592 32.7273 14.5452 31.9132 14.5452 30.9091Z" fill="#EDEDED"/>
<path d="M12.2725 38.1818C12.2725 37.1777 13.0865 36.3636 14.0906 36.3636H16.8179C17.8221 36.3636 18.6361 37.1777 18.6361 38.1818C18.6361 39.186 17.8221 40 16.8179 40H14.0906C13.0865 40 12.2725 39.186 12.2725 38.1818Z" fill="#EDEDED"/>
<path d="M34.0906 38.1818C34.0906 37.1777 34.9047 36.3636 35.9088 36.3636H38.6361C39.6402 36.3636 40.4543 37.1777 40.4543 38.1818C40.4543 39.186 39.6402 40 38.6361 40H35.9088C34.9047 40 34.0906 39.186 34.0906 38.1818Z" fill="#EDEDED"/>
<path d="M28.1816 30.9091C28.1816 29.9049 28.9956 29.0909 29.9997 29.0909H36.3634C37.3675 29.0909 38.1815 29.9049 38.1815 30.9091C38.1815 31.9132 37.3675 32.7273 36.3634 32.7273H29.9997C28.9956 32.7273 28.1816 31.9132 28.1816 30.9091Z" fill="#EDEDED"/>
<path d="M74.5452 1.81818C74.5452 0.814028 75.3592 0 76.3634 0H78.1815C79.1857 0 79.9997 0.814028 79.9997 1.81818C79.9997 2.82234 79.1857 3.63636 78.1815 3.63636H76.3634C75.3592 3.63636 74.5452 2.82234 74.5452 1.81818Z" fill="#EDEDED"/>
<path d="M72.2725 9.09091C72.2725 8.08676 73.0865 7.27273 74.0906 7.27273H80.4543C81.4584 7.27273 82.2725 8.08676 82.2725 9.09091C82.2725 10.0951 81.4584 10.9091 80.4543 10.9091H74.0906C73.0865 10.9091 72.2725 10.0951 72.2725 9.09091Z" fill="#EDEDED"/>
<path d="M56.3634 16.3636C56.3634 15.3595 57.1774 14.5455 58.1815 14.5455H96.3634C97.3675 14.5455 98.1815 15.3595 98.1815 16.3636C98.1815 17.3678 97.3675 18.1818 96.3634 18.1818H58.1815C57.1774 18.1818 56.3634 17.3678 56.3634 16.3636Z" fill="#EDEDED"/>
<path d="M63.1815 38.1818C63.1815 37.1777 63.9956 36.3636 64.9997 36.3636H67.727C68.7312 36.3636 69.5452 37.1777 69.5452 38.1818C69.5452 39.186 68.7312 40 67.727 40H64.9997C63.9956 40 63.1815 39.186 63.1815 38.1818Z" fill="#EDEDED"/>
<path d="M84.9997 38.1818C84.9997 37.1777 85.8138 36.3636 86.8179 36.3636H89.5452C90.5493 36.3636 91.3634 37.1777 91.3634 38.1818C91.3634 39.186 90.5493 40 89.5452 40H86.8179C85.8138 40 84.9997 39.186 84.9997 38.1818Z" fill="#EDEDED"/>
<path d="M185.124 7.93679H194.488C196.342 7.93679 197.722 8.01669 198.627 8.17649C199.543 8.32564 200.358 8.64524 201.072 9.1353C201.797 9.62536 202.399 10.2805 202.878 11.1009C203.357 11.9105 203.597 12.8214 203.597 13.8335C203.597 14.9308 203.299 15.9375 202.702 16.8537C202.116 17.7699 201.317 18.457 200.305 18.9151C201.733 19.3306 202.83 20.0391 203.597 21.0405C204.364 22.0419 204.748 23.2191 204.748 24.5721C204.748 25.6374 204.497 26.6761 203.997 27.6882C203.506 28.6896 202.83 29.494 201.967 30.1012C201.115 30.6978 200.06 31.0653 198.803 31.2038C198.015 31.2891 196.113 31.3423 193.098 31.3636H185.124V7.93679ZM189.854 11.8359V17.2532H192.954C194.797 17.2532 195.943 17.2266 196.39 17.1733C197.2 17.0774 197.834 16.8004 198.292 16.3423C198.76 15.8736 198.995 15.261 198.995 14.5046C198.995 13.7802 198.792 13.1942 198.387 12.7468C197.993 12.2887 197.402 12.0117 196.614 11.9158C196.145 11.8626 194.797 11.8359 192.571 11.8359H189.854ZM189.854 21.1523V27.4165H194.233C195.937 27.4165 197.019 27.3686 197.477 27.2727C198.18 27.1449 198.75 26.8359 199.187 26.3459C199.634 25.8452 199.858 25.1793 199.858 24.3484C199.858 23.6452 199.687 23.0487 199.346 22.5586C199.005 22.0685 198.51 21.7116 197.86 21.4879C197.221 21.2642 195.825 21.1523 193.673 21.1523H189.854Z" fill="#EEEEEE"/>
<path d="M206.324 22.6385C206.324 21.147 206.692 19.7035 207.427 18.3079C208.162 16.9123 209.201 15.8469 210.543 15.1119C211.896 14.3768 213.403 14.0092 215.065 14.0092C217.633 14.0092 219.737 14.8455 221.378 16.5181C223.018 18.18 223.838 20.2841 223.838 22.8303C223.838 25.3977 223.008 27.5284 221.346 29.2223C219.694 30.9055 217.612 31.7472 215.097 31.7472C213.542 31.7472 212.056 31.3956 210.639 30.6925C209.233 29.9893 208.162 28.9613 207.427 27.6083C206.692 26.2447 206.324 24.5881 206.324 22.6385ZM210.927 22.8782C210.927 24.5614 211.326 25.8505 212.125 26.7454C212.924 27.6403 213.91 28.0877 215.081 28.0877C216.253 28.0877 217.233 27.6403 218.022 26.7454C218.821 25.8505 219.22 24.5508 219.22 22.8462C219.22 21.1843 218.821 19.9059 218.022 19.011C217.233 18.1161 216.253 17.6687 215.081 17.6687C213.91 17.6687 212.924 18.1161 212.125 19.011C211.326 19.9059 210.927 21.195 210.927 22.8782Z" fill="#EEEEEE"/>
<path d="M233.789 14.3928V17.9723H230.721V24.8118C230.721 26.1967 230.747 27.0064 230.8 27.2408C230.864 27.4645 230.998 27.6509 231.2 27.8001C231.413 27.9492 231.669 28.0238 231.967 28.0238C232.383 28.0238 232.984 27.88 233.773 27.5923L234.156 31.076C233.112 31.5234 231.93 31.7472 230.609 31.7472C229.799 31.7472 229.069 31.614 228.419 31.3477C227.77 31.0707 227.29 30.7191 226.981 30.293C226.683 29.8562 226.475 29.2702 226.358 28.5352C226.262 28.0131 226.214 26.9585 226.214 25.3711V17.9723H224.153V14.3928H226.214V11.021L230.721 8.40021V14.3928H233.789Z" fill="#EEEEEE"/>
</g>
<defs>
<filter id="filter0_i_0_1" x="0" y="7.93677" width="185.265" height="27.0632" filterUnits="userSpaceOnUse" color-interpolation-filters="sRGB">
<feFlood flood-opacity="0" result="BackgroundImageFix"/>
<feBlend mode="normal" in="SourceGraphic" in2="BackgroundImageFix" result="shape"/>
<feColorMatrix in="SourceAlpha" type="matrix" values="0 0 0 0 0 0 0 0 0 0 0 0 0 0 0 0 0 0 127 0" result="hardAlpha"/>
<feOffset/>
<feGaussianBlur stdDeviation="4"/>
<feComposite in2="hardAlpha" operator="arithmetic" k2="-1" k3="1"/>
<feColorMatrix type="matrix" values="0 0 0 0 0 0 0 0 0 0 0 0 0 0 0 0 0 0 0.25 0"/>
<feBlend mode="normal" in2="shape" result="effect1_innerShadow_0_1"/>
</filter>
<filter id="filter1_i_0_1" x="12.2725" y="0" width="221.884" height="40" filterUnits="userSpaceOnUse" color-interpolation-filters="sRGB">
<feFlood flood-opacity="0" result="BackgroundImageFix"/>
<feBlend mode="normal" in="SourceGraphic" in2="BackgroundImageFix" result="shape"/>
<feColorMatrix in="SourceAlpha" type="matrix" values="0 0 0 0 0 0 0 0 0 0 0 0 0 0 0 0 0 0 127 0" result="hardAlpha"/>
<feOffset/>
<feGaussianBlur stdDeviation="4"/>
<feComposite in2="hardAlpha" operator="arithmetic" k2="-1" k3="1"/>
<feColorMatrix type="matrix" values="0 0 0 0 0 0 0 0 0 0 0 0 0 0 0 0 0 0 0.25 0"/>
<feBlend mode="normal" in2="shape" result="effect1_innerShadow_0_1"/>
</filter>
</defs>
</svg>
